<?xml version="1.0" standalone="no"?><!DOCTYPE svg PUBLIC "-//W3C//DTD SVG 1.1//EN" "http://www.w3.org/Graphics/SVG/1.1/DTD/svg11.dtd"><svg t="1669304603684" class="icon" viewBox="0 0 1024 1024" version="1.1" xmlns="http://www.w3.org/2000/svg" p-id="3628" xmlns:xlink="http://www.w3.org/1999/xlink" width="200" height="200"><path d="M547.970974 547.970657h182.660215c20.17793 0 36.530045 16.352115 36.530046 36.530045 0 20.167941-16.362104 36.530045-36.530046 36.530046H547.970974v182.660215c0 20.17793-16.352115 36.530045-36.530045 36.530045-20.167941 0-36.530045-16.352115-36.530046-36.530045V621.030748H292.250668c-20.17793 0-36.530045-16.352115-36.530045-36.530046s16.352115-36.530045 36.530045-36.530045h182.660215v-73.06009H328.780713c-20.167941 0-36.530045-16.352115-36.530045-36.530046 0-20.167941 16.352115-36.530045 36.530045-36.530045h94.476666l-88.183549-88.193538a36.536039 36.536039 0 0 1-9.969096-35.521149 36.550023 36.550023 0 0 1 26.091462-26.091462c12.776026-3.336351 26.351178 0.469486 35.521149 9.959107L511.43094 386.717028l124.723583-124.713594a36.549025 36.549025 0 0 1 35.531138-9.959107 36.533042 36.533042 0 0 1 26.091462 26.091462 36.508069 36.508069 0 0 1-9.959107 35.521149L599.634467 401.850476h94.466677c20.17793 0 36.530045 16.352115 36.530045 36.530045s-16.352115 36.530045-36.530045 36.530046H547.970974v73.06009z m-36.530045 474.910567c-282.461058 0-511.440612-228.979554-511.440612-511.440612s228.979554-511.440612 511.440612-511.440612 511.440612 228.979554 511.440612 511.440612-228.979554 511.440612-511.440612 511.440612z m0-73.07008c242.095208 0 438.380521-196.285313 438.380521-438.380521 0-242.085219-196.285313-438.380521-438.380521-438.380522-242.085219 0-438.380521 196.285313-438.380522 438.380522s196.285313 438.380521 438.380522 438.380521z m0 0" fill="#000000" p-id="3629"></path></svg>